<?xml version="1.0" encoding="utf-8"?>
<!-- Generator: Adobe Illustrator 16.0.0, SVG Export Plug-In . SVG Version: 6.00 Build 0)  -->
<!DOCTYPE svg PUBLIC "-//W3C//DTD SVG 1.1//EN" "http://www.w3.org/Graphics/SVG/1.1/DTD/svg11.dtd">
<svg version="1.1" id="Calque_1" xmlns="http://www.w3.org/2000/svg" xmlns:xlink="http://www.w3.org/1999/xlink" x="0px" y="0px"
	 width="48.228px" height="45.736px" viewBox="645.854 167.339 48.228 45.736"
	 enable-background="new 645.854 167.339 48.228 45.736" xml:space="preserve">
<g id="Calque_2">
	<g id="Calque_3">
	</g>
</g>
<polygon fill="#FFFFFF" points="681.795,181.969 665.124,167.339 648.38,181.969 650.048,181.969 650.048,201.408 660.976,201.408 
	660.976,188.282 668.672,188.282 668.672,201.408 680.203,201.408 680.203,181.969 "/>
<g>
	<polygon fill="#FFFFFF" points="679.255,208.699 679.255,200.956 671.512,200.956 671.512,195.876 679.255,195.876 
		679.255,188.133 684.335,188.133 684.335,195.876 692.078,195.876 692.078,200.956 684.335,200.956 684.335,208.699 	"/>
	<path fill="#FF9900" d="M683.602,188.866v7.743h7.743v3.613h-7.743v7.743h-3.613v-7.743h-7.743v-3.613h7.743v-7.743H683.602
		 M685.068,187.399h-1.467h-3.613h-1.467v1.467v6.276h-6.276h-1.467v1.467v3.613v1.467h1.467h6.276v6.276v1.467h1.467h3.613h1.467
		v-1.467v-6.276h6.276h1.467v-1.467v-3.613v-1.467h-1.467h-6.276v-6.276V187.399L685.068,187.399z"/>
</g>
</svg>
