<?xml version="1.0" encoding="utf-8"?>
<!-- Generator: Adobe Illustrator 16.0.0, SVG Export Plug-In . SVG Version: 6.00 Build 0)  -->
<!DOCTYPE svg PUBLIC "-//W3C//DTD SVG 1.1//EN" "http://www.w3.org/Graphics/SVG/1.1/DTD/svg11.dtd">
<svg version="1.1" id="Calque_1" xmlns="http://www.w3.org/2000/svg" xmlns:xlink="http://www.w3.org/1999/xlink" x="0px" y="0px"
	 width="177.5px" height="143px" viewBox="1019.416 536.955 177.5 143" enable-background="new 1019.416 536.955 177.5 143"
	 xml:space="preserve">
<g id="Calque_2">
	<g id="Calque_3">
	</g>
</g>
<g>
	<polygon fill="#FFFFFF" points="1071.335,620.951 1058.063,609.305 1044.733,620.951 1046.062,620.951 1046.062,636.425 
		1054.761,636.425 1054.761,625.977 1060.886,625.977 1060.886,636.425 1070.067,636.425 1070.067,620.951 	"/>
	<g>
		<linearGradient id="SVGID_1_" gradientUnits="userSpaceOnUse" x1="1058.0352" y1="610.709" x2="1058.0352" y2="554.123">
			<stop  offset="0" style="stop-color:#7F47DD"/>
			<stop  offset="1" style="stop-color:#FBAE17"/>
		</linearGradient>
		<path fill="url(#SVGID_1_)" d="M1058.034,554.123c-11.076,0-20.055,8.979-20.055,20.056c0,11.077,9.848,26.323,20.055,36.53
			c8.555-8.555,20.057-25.453,20.057-36.53C1078.091,563.103,1069.11,554.123,1058.034,554.123z M1058.034,583.014
			c-6.066,0-10.982-4.918-10.982-10.982c0-6.067,4.916-10.984,10.982-10.984s10.982,4.917,10.982,10.984
			C1069.017,578.096,1064.101,583.014,1058.034,583.014z"/>
		<g>
			<path fill="#FFFFFF" d="M1058.034,554.123c-0.769,0.055-1.543,0.06-2.307,0.154c-0.757,0.145-1.533,0.186-2.271,0.415
				c-0.745,0.193-1.495,0.371-2.208,0.67c-0.359,0.137-0.725,0.261-1.079,0.409l-1.037,0.506c-1.392,0.664-2.64,1.581-3.832,2.541
				c-1.136,1.031-2.227,2.118-3.107,3.373l-0.668,0.931l-0.573,0.992c-0.41,0.646-0.678,1.366-1.003,2.053
				c-0.307,0.695-0.505,1.435-0.762,2.146c-0.156,0.743-0.374,1.472-0.479,2.222c-0.216,1.494-0.33,3.015-0.192,4.509l0.089,1.153
				c0.051,0.375,0.127,0.738,0.188,1.106l0.192,1.101l0.286,1.099l0.285,1.098l0.361,1.078c0.234,0.721,0.479,1.437,0.781,2.136
				c0.545,1.416,1.204,2.788,1.879,4.149l1.067,2.017l1.15,1.972c0.798,1.298,1.611,2.584,2.473,3.841
				c0.834,1.273,1.746,2.496,2.647,3.724c0.924,1.212,1.871,2.404,2.839,3.58c0.964,1.179,1.957,2.335,2.984,3.458
				c1.015,1.135,2.081,2.219,3.146,3.304h-1.701l1.579-1.627l1.53-1.684c0.996-1.146,1.985-2.302,2.926-3.499
				c0.951-1.187,1.881-2.395,2.784-3.62c0.908-1.224,1.775-2.476,2.623-3.741c0.82-1.281,1.683-2.542,2.447-3.857
				c0.803-1.296,1.52-2.637,2.243-3.977l1.008-2.045c0.329-0.685,0.608-1.39,0.916-2.084c0.321-0.691,0.543-1.414,0.812-2.123
				c0.279-0.708,0.479-1.435,0.682-2.162c0.1-0.364,0.217-0.726,0.302-1.093l0.214-1.107c0.065-0.37,0.158-0.739,0.202-1.111
				l0.096-1.119l0.049-0.561l0.023-0.258l-0.007-0.289l-0.03-1.155c0.017-0.785-0.157-1.491-0.228-2.244
				c-0.111-0.741-0.321-1.475-0.483-2.215c-0.259-0.71-0.453-1.45-0.764-2.143c-0.322-0.688-0.594-1.404-1.004-2.049l-0.571-0.992
				l-0.669-0.929c-0.882-1.251-1.972-2.337-3.106-3.366c-1.193-0.956-2.439-1.874-3.83-2.535l-1.036-0.506
				c-0.354-0.146-0.719-0.271-1.078-0.408c-0.711-0.298-1.461-0.475-2.205-0.669c-0.737-0.228-1.514-0.27-2.27-0.413
				C1059.575,554.183,1058.803,554.178,1058.034,554.123z M1058.034,554.123c0.769,0.047,1.542,0.044,2.307,0.131
				c0.757,0.137,1.536,0.171,2.277,0.393c0.748,0.187,1.502,0.356,2.218,0.648c0.362,0.134,0.729,0.255,1.087,0.399l1.045,0.497
				c1.396,0.663,2.689,1.521,3.919,2.461c1.175,1.005,2.313,2.073,3.245,3.318l0.708,0.926l0.629,0.983
				c0.449,0.64,0.763,1.355,1.128,2.046c0.354,0.697,0.592,1.445,0.893,2.168c0.205,0.755,0.457,1.498,0.613,2.272
				c0.114,0.774,0.332,1.575,0.351,2.336l0.086,1.152l0.021,0.288l-0.009,0.319l-0.021,0.593l-0.045,1.188
				c-0.027,0.394-0.104,0.779-0.153,1.171l-0.169,1.171c-0.07,0.387-0.172,0.765-0.257,1.148c-0.175,0.767-0.347,1.535-0.598,2.275
				c-0.24,0.744-0.438,1.509-0.731,2.232c-0.28,0.729-0.535,1.471-0.839,2.19l-0.932,2.149c-0.673,1.405-1.343,2.818-2.099,4.181
				c-0.721,1.385-1.522,2.721-2.336,4.05c-0.829,1.319-1.679,2.625-2.57,3.903c-0.893,1.276-1.789,2.553-2.763,3.771
				c-0.951,1.235-1.954,2.432-2.968,3.621l-1.561,1.752l-1.626,1.702l-0.847,0.887l-0.854-0.887
				c-1.086-1.126-2.171-2.252-3.201-3.427c-1.043-1.163-2.049-2.358-3.025-3.577c-0.989-1.209-1.902-2.477-2.818-3.739
				c-0.888-1.285-1.784-2.563-2.604-3.894c-0.856-1.306-1.604-2.682-2.363-4.046l-1.083-2.079l-0.996-2.125
				c-0.627-1.434-1.236-2.876-1.729-4.366c-0.275-0.732-0.493-1.487-0.7-2.245l-0.318-1.132l-0.242-1.155l-0.241-1.153l-0.149-1.188
				c-0.046-0.395-0.105-0.792-0.139-1.183l-0.034-1.156c-0.066-1.585,0.129-3.156,0.428-4.697c0.147-0.771,0.408-1.518,0.607-2.273
				c0.3-0.725,0.541-1.472,0.89-2.171c0.367-0.69,0.677-1.41,1.127-2.051l0.628-0.984l0.707-0.928
				c0.932-1.248,2.07-2.319,3.245-3.325c0.629-0.453,1.235-0.939,1.895-1.343c0.675-0.378,1.313-0.822,2.026-1.125l1.046-0.498
				c0.357-0.146,0.726-0.267,1.087-0.4c0.718-0.292,1.472-0.464,2.221-0.65c0.742-0.223,1.522-0.256,2.28-0.393
				C1056.491,554.167,1057.265,554.17,1058.034,554.123z"/>
			<path fill="#FFFFFF" d="M1058.034,583.014c0,0-0.27-0.011-0.774-0.031c-0.253,0.002-0.563-0.039-0.925-0.096
				c-0.367-0.036-0.778-0.128-1.236-0.249c-0.908-0.25-2.003-0.644-3.133-1.342c-1.13-0.692-2.282-1.694-3.277-3.021
				c-0.973-1.337-1.747-3.024-2.087-4.942c-0.068-0.489-0.127-0.95-0.148-1.495c0.004-0.481-0.03-0.938,0.043-1.485
				c0.078-1.073,0.341-2.088,0.724-3.116c0.39-1.021,0.963-1.986,1.636-2.899c0.698-0.897,1.555-1.683,2.496-2.373
				c0.954-0.677,2.028-1.197,3.16-1.563c1.138-0.353,2.328-0.521,3.522-0.558c0.675,0.044,1.064,0.031,1.749,0.154
				c0.636,0.078,1.201,0.245,1.774,0.4c1.13,0.368,2.208,0.882,3.162,1.562c0.942,0.689,1.797,1.478,2.499,2.372
				c0.673,0.914,1.246,1.88,1.636,2.901c0.792,2.028,0.933,4.213,0.62,6.076c-0.345,1.967-1.118,3.619-2.092,4.968
				c-0.996,1.326-2.15,2.326-3.279,3.02c-1.13,0.699-2.226,1.091-3.134,1.341c-0.458,0.121-0.869,0.213-1.235,0.25
				c-0.363,0.056-0.672,0.097-0.926,0.095C1058.304,583.003,1058.034,583.014,1058.034,583.014z M1058.034,583.014
				c0,0,0.269-0.017,0.773-0.047c0.253-0.004,0.561-0.052,0.921-0.115c0.364-0.044,0.772-0.145,1.225-0.275
				c0.896-0.264,1.984-0.672,3.042-1.444c1.059-0.751,2.145-1.78,2.953-3.146c0.813-1.344,1.365-3.031,1.46-4.748
				c0.098-1.812-0.278-3.638-1.123-5.309c-0.848-1.663-2.176-3.108-3.791-4.127c-0.82-0.492-1.702-0.874-2.615-1.162
				c-0.466-0.113-0.937-0.242-1.375-0.283c-0.375-0.089-1.07-0.076-1.47-0.107c-0.962,0.014-1.922,0.124-2.846,0.388
				c-0.912,0.292-1.797,0.666-2.617,1.16c-1.615,1.02-2.948,2.463-3.795,4.129c-0.399,0.829-0.757,1.726-0.911,2.586
				c-0.116,0.411-0.143,0.92-0.198,1.387c-0.028,0.404-0.027,0.884-0.015,1.315c0.1,1.766,0.651,3.418,1.465,4.773
				c0.81,1.365,1.897,2.394,2.955,3.145c1.058,0.772,2.146,1.18,3.043,1.444c0.453,0.13,0.86,0.23,1.224,0.274
				c0.36,0.063,0.668,0.111,0.922,0.115C1057.766,582.997,1058.034,583.014,1058.034,583.014z"/>
		</g>
	</g>
	<g>
		
			<image overflow="visible" opacity="0.75" width="132" height="124" xlink:href="2B7617C7.png"  transform="matrix(1 0 0 1 1063.8291 534.2842)">
		</image>
		<g>
			<g>
				<path fill="#FFFFFF" d="M1087.533,587.972v-28.831h3v26.104h12.214v2.728H1087.533z"/>
				<path fill="#FFFFFF" d="M1114.775,567.205c1.045,0.469,1.834,1.238,2.367,2.309c0.532,1.072,0.798,2.517,0.798,4.335v14.123
					h-2.474l-0.214-2.318h-0.195c-0.584,0.884-1.321,1.549-2.211,1.997c-0.89,0.447-1.887,0.672-2.99,0.672
					c-1.13,0-2.123-0.228-2.98-0.682c-0.857-0.455-1.522-1.113-1.996-1.978c-0.475-0.863-0.712-1.893-0.712-3.087
					c0-1.896,0.565-3.367,1.695-4.412c1.13-1.046,2.883-1.68,5.26-1.9l3.915-0.408v-2.143c0-1.195-0.172-2.134-0.516-2.815
					c-0.345-0.683-0.854-1.162-1.529-1.442c-0.676-0.278-1.565-0.418-2.669-0.418c-0.74,0-1.542,0.068-2.406,0.204
					c-0.863,0.137-1.704,0.348-2.522,0.634v-2.533c0.753-0.26,1.62-0.464,2.601-0.613c0.98-0.148,1.899-0.225,2.757-0.225
					C1112.389,566.504,1113.729,566.738,1114.775,567.205z M1113.022,585.322c0.76-0.402,1.432-1.064,2.016-1.986v-5.396
					l-3.701,0.37c-1.415,0.144-2.464,0.539-3.146,1.188c-0.683,0.649-1.023,1.564-1.023,2.746c0,1.234,0.303,2.156,0.906,2.767
					s1.471,0.915,2.601,0.915C1111.479,585.926,1112.263,585.725,1113.022,585.322z"/>
				<path fill="#FFFFFF" d="M1135.024,587.972l-6.623-9.604h-2.728v9.604h-2.961v-31.479h2.961v19.422h2.688l6.098-9.078h3.233
					l-6.818,10.266l7.461,10.87H1135.024z"/>
				<path fill="#FFFFFF" d="M1149.509,567.205c1.045,0.469,1.834,1.238,2.367,2.309c0.532,1.072,0.798,2.517,0.798,4.335v14.123
					h-2.474l-0.214-2.318h-0.195c-0.584,0.884-1.321,1.549-2.211,1.997c-0.89,0.447-1.887,0.672-2.99,0.672
					c-1.13,0-2.123-0.228-2.98-0.682c-0.857-0.455-1.522-1.113-1.996-1.978c-0.475-0.863-0.712-1.893-0.712-3.087
					c0-1.896,0.565-3.367,1.695-4.412c1.13-1.046,2.883-1.68,5.26-1.9l3.915-0.408v-2.143c0-1.195-0.172-2.134-0.516-2.815
					c-0.345-0.683-0.854-1.162-1.529-1.442c-0.676-0.278-1.565-0.418-2.669-0.418c-0.74,0-1.542,0.068-2.406,0.204
					c-0.863,0.137-1.704,0.348-2.522,0.634v-2.533c0.753-0.26,1.62-0.464,2.601-0.613c0.98-0.148,1.899-0.225,2.757-0.225
					C1147.122,566.504,1148.463,566.738,1149.509,567.205z M1147.756,585.322c0.76-0.402,1.432-1.064,2.016-1.986v-5.396
					l-3.701,0.37c-1.415,0.144-2.464,0.539-3.146,1.188c-0.683,0.649-1.023,1.564-1.023,2.746c0,1.234,0.303,2.156,0.906,2.767
					s1.471,0.915,2.601,0.915C1146.213,585.926,1146.996,585.725,1147.756,585.322z"/>
				<path fill="#FFFFFF" d="M1169.524,566.836h3.039l-9.526,29.707h-2.961l2.767-8.571h-0.974l-6.779-21.136h3.136l5.591,18.467
					L1169.524,566.836z"/>
				<path fill="#FFFFFF" d="M1086.403,620.309c0-9.857,3.422-14.785,10.267-14.785c6.831,0,10.245,4.928,10.245,14.785
					s-3.414,14.785-10.245,14.785C1089.825,635.094,1086.403,630.166,1086.403,620.309z M1100.517,631.334
					c1.046-0.752,1.854-2.016,2.426-3.788c0.57-1.772,0.857-4.152,0.857-7.14c0-3.052-0.287-5.477-0.857-7.275
					c-0.572-1.799-1.377-3.078-2.416-3.838s-2.325-1.14-3.856-1.14c-1.533,0-2.822,0.376-3.867,1.13
					c-1.046,0.753-1.854,2.016-2.426,3.789c-0.571,1.772-0.857,4.152-0.857,7.139c0,3.053,0.286,5.478,0.857,7.276
					c0.572,1.799,1.38,3.077,2.426,3.837c1.045,0.76,2.334,1.141,3.867,1.141C1098.189,632.465,1099.471,632.088,1100.517,631.334z"
					/>
				<path fill="#FFFFFF" d="M1115.321,633.975c-1.383-0.747-2.409-1.896-3.078-3.448s-1.003-3.542-1.003-5.971v-18.662h3v19.032
					c0,2.598,0.51,4.5,1.529,5.707c1.02,1.208,2.652,1.813,4.899,1.813c2.233,0,3.859-0.604,4.88-1.813
					c1.019-1.207,1.528-3.109,1.528-5.707v-19.032H1130v18.662c0,2.429-0.328,4.419-0.984,5.971
					c-0.655,1.552-1.669,2.701-3.039,3.448c-1.37,0.746-3.14,1.119-5.308,1.119C1118.486,635.094,1116.704,634.721,1115.321,633.975
					z"/>
				<path fill="#FFFFFF" d="M1134.353,634.393c-0.396-0.389-0.594-0.908-0.594-1.559c0-0.648,0.198-1.172,0.594-1.567
					c0.396-0.396,0.913-0.595,1.549-0.595c0.649,0,1.172,0.199,1.568,0.595s0.595,0.919,0.595,1.567c0,0.65-0.202,1.17-0.604,1.559
					c-0.402,0.391-0.922,0.585-1.559,0.585C1135.266,634.978,1134.749,634.783,1134.353,634.393z"/>
			</g>
		</g>
	</g>
</g>
<g>
	<g>
		<path fill="#FFFFFF" d="M1055.971,649.987h0.596l-2.465,9.181h-0.8l-2.423-8.543l-2.439,8.543h-0.799l-2.465-9.181h0.612
			l2.261,8.594l2.432-8.594h0.799l2.431,8.594L1055.971,649.987z"/>
		<path fill="#FFFFFF" d="M1068.244,649.987h0.596l-2.465,9.181h-0.799l-2.423-8.543l-2.439,8.543h-0.799l-2.466-9.181h0.613
			l2.26,8.594l2.432-8.594h0.799l2.432,8.594L1068.244,649.987z"/>
		<path fill="#FFFFFF" d="M1080.518,649.987h0.596l-2.465,9.181h-0.799l-2.423-8.543l-2.439,8.543h-0.799l-2.466-9.181h0.613
			l2.26,8.594l2.432-8.594h0.799l2.432,8.594L1080.518,649.987z"/>
		<path fill="#FFFFFF" d="M1082.282,659.107c-0.099-0.096-0.149-0.223-0.149-0.382s0.051-0.289,0.149-0.392
			c0.099-0.102,0.226-0.152,0.378-0.152c0.153,0,0.279,0.051,0.379,0.152c0.099,0.103,0.148,0.232,0.148,0.392
			s-0.05,0.286-0.148,0.382c-0.1,0.097-0.226,0.145-0.379,0.145C1082.508,659.252,1082.381,659.204,1082.282,659.107z"/>
		<path fill="#FFFFFF" d="M1085.33,659.168v-13.736h0.577v13.736H1085.33z"/>
		<path fill="#FFFFFF" d="M1091.984,650.128c0.408,0.185,0.719,0.49,0.932,0.918c0.212,0.428,0.318,0.999,0.318,1.712v6.41h-0.51
			l-0.051-1.037h-0.068c-0.277,0.385-0.617,0.677-1.02,0.875s-0.851,0.298-1.344,0.298c-0.481,0-0.904-0.093-1.266-0.276
			c-0.363-0.184-0.646-0.456-0.847-0.816c-0.201-0.359-0.302-0.795-0.302-1.305c0-0.781,0.229-1.391,0.689-1.827
			c0.459-0.437,1.158-0.706,2.099-0.808l2.04-0.238v-1.291c0-0.596-0.085-1.063-0.255-1.403c-0.17-0.34-0.415-0.579-0.735-0.718
			s-0.732-0.209-1.236-0.209c-0.313,0-0.654,0.033-1.029,0.098c-0.373,0.066-0.744,0.164-1.113,0.294v-0.578
			c0.301-0.113,0.647-0.204,1.041-0.272c0.395-0.068,0.767-0.102,1.118-0.102C1091.064,649.852,1091.576,649.943,1091.984,650.128z
			 M1091.576,658.402c0.414-0.227,0.774-0.601,1.08-1.122v-2.677l-2.057,0.229c-0.731,0.074-1.271,0.277-1.619,0.608
			c-0.349,0.331-0.523,0.798-0.523,1.397c0,0.641,0.158,1.118,0.473,1.433c0.314,0.315,0.769,0.472,1.363,0.472
			C1090.735,658.742,1091.163,658.629,1091.576,658.402z"/>
		<path fill="#FFFFFF" d="M1100.936,659.168l-3.299-4.42h-1.462v4.42h-0.577v-13.736h0.577v8.771h1.454l3.051-4.216h0.697
			l-3.238,4.488l3.51,4.692H1100.936z"/>
		<path fill="#FFFFFF" d="M1106.213,650.128c0.408,0.185,0.719,0.49,0.932,0.918c0.212,0.428,0.318,0.999,0.318,1.712v6.41h-0.51
			l-0.051-1.037h-0.068c-0.277,0.385-0.617,0.677-1.02,0.875s-0.851,0.298-1.344,0.298c-0.481,0-0.904-0.093-1.266-0.276
			c-0.363-0.184-0.646-0.456-0.847-0.816c-0.201-0.359-0.302-0.795-0.302-1.305c0-0.781,0.229-1.391,0.689-1.827
			c0.459-0.437,1.158-0.706,2.099-0.808l2.04-0.238v-1.291c0-0.596-0.085-1.063-0.255-1.403c-0.17-0.34-0.415-0.579-0.735-0.718
			s-0.732-0.209-1.236-0.209c-0.313,0-0.654,0.033-1.029,0.098c-0.373,0.066-0.744,0.164-1.113,0.294v-0.578
			c0.301-0.113,0.647-0.204,1.041-0.272c0.395-0.068,0.767-0.102,1.118-0.102C1105.293,649.852,1105.805,649.943,1106.213,650.128z
			 M1105.805,658.402c0.414-0.227,0.774-0.601,1.08-1.122v-2.677l-2.057,0.229c-0.731,0.074-1.271,0.277-1.619,0.608
			c-0.349,0.331-0.523,0.798-0.523,1.397c0,0.641,0.158,1.118,0.473,1.433c0.314,0.315,0.769,0.472,1.363,0.472
			C1104.964,658.742,1105.392,658.629,1105.805,658.402z"/>
		<path fill="#FFFFFF" d="M1115.146,649.987h0.646l-4.42,12.921h-0.611l1.291-3.74h-0.203l-3.146-9.181h0.646l2.898,8.61
			L1115.146,649.987z"/>
		<path fill="#FFFFFF" d="M1116.643,654.578c0-1.666,0.271-2.871,0.812-3.613s1.313-1.113,2.316-1.113
			c2.085,0,3.128,1.575,3.128,4.727c0,1.666-0.271,2.873-0.812,3.62c-0.542,0.748-1.313,1.122-2.316,1.122
			C1117.686,659.32,1116.643,657.739,1116.643,654.578z M1121.131,658.377c0.368-0.255,0.652-0.688,0.854-1.301
			c0.201-0.611,0.303-1.434,0.303-2.465c0-1.054-0.102-1.89-0.303-2.508c-0.201-0.617-0.485-1.054-0.854-1.309
			c-0.369-0.255-0.822-0.383-1.36-0.383s-0.991,0.127-1.36,0.379c-0.368,0.252-0.652,0.683-0.854,1.291
			c-0.201,0.609-0.303,1.43-0.303,2.461c0,1.055,0.102,1.892,0.303,2.512c0.201,0.621,0.485,1.061,0.854,1.318
			c0.369,0.258,0.822,0.387,1.36,0.387S1120.762,658.632,1121.131,658.377z"/>
		<path fill="#FFFFFF" d="M1125.423,658.684c-0.425-0.426-0.638-1.137-0.638-2.135v-6.562h0.578v6.597
			c0,0.781,0.158,1.34,0.477,1.674c0.316,0.334,0.765,0.502,1.343,0.502c0.442,0,0.896-0.122,1.364-0.365
			c0.467-0.244,0.84-0.627,1.117-1.148v-7.259h0.578v9.181h-0.51l-0.051-1.021h-0.068c-0.322,0.386-0.697,0.677-1.121,0.876
			c-0.426,0.197-0.867,0.297-1.326,0.297C1126.429,659.32,1125.848,659.107,1125.423,658.684z"/>
		<path fill="#FFFFFF" d="M1132.618,659.107c-0.099-0.096-0.149-0.223-0.149-0.382s0.051-0.289,0.149-0.392
			c0.099-0.102,0.226-0.152,0.378-0.152c0.153,0,0.279,0.051,0.379,0.152c0.099,0.103,0.148,0.232,0.148,0.392
			s-0.05,0.286-0.148,0.382c-0.1,0.097-0.226,0.145-0.379,0.145C1132.844,659.252,1132.717,659.204,1132.618,659.107z"/>
		<path fill="#FFFFFF" d="M1136.579,659.235c-0.354-0.057-0.659-0.13-0.913-0.221v-13.583h0.577v5.423h0.052
			c0.227-0.283,0.526-0.521,0.9-0.714c0.374-0.193,0.793-0.289,1.258-0.289c0.901,0,1.628,0.349,2.181,1.045
			c0.552,0.697,0.829,1.867,0.829,3.512c0,1.677-0.332,2.914-0.995,3.714c-0.663,0.799-1.618,1.198-2.864,1.198
			C1137.275,659.32,1136.934,659.292,1136.579,659.235z M1140.034,657.748c0.544-0.674,0.816-1.766,0.816-3.272
			c0-1.054-0.104-1.88-0.314-2.478s-0.491-1.012-0.847-1.241c-0.354-0.229-0.777-0.345-1.27-0.345c-0.442,0-0.861,0.117-1.258,0.349
			c-0.397,0.232-0.703,0.559-0.919,0.978v6.834c0.176,0.051,0.392,0.096,0.646,0.132c0.255,0.037,0.493,0.056,0.714,0.056
			C1138.68,658.76,1139.49,658.422,1140.034,657.748z"/>
		<path fill="#FFFFFF" d="M1143.346,647.463c-0.1-0.096-0.149-0.224-0.149-0.383c0-0.158,0.05-0.289,0.149-0.391
			c0.099-0.102,0.225-0.152,0.378-0.152s0.278,0.051,0.378,0.152s0.148,0.232,0.148,0.391c0,0.159-0.049,0.287-0.148,0.383
			c-0.1,0.097-0.225,0.145-0.378,0.145S1143.444,647.56,1143.346,647.463z M1143.435,659.168v-9.181h0.577v9.181H1143.435z"/>
		<path fill="#FFFFFF" d="M1146.426,658.623h4.692v0.545h-5.423v-0.34l4.607-8.297h-4.522v-0.544h5.253v0.341L1146.426,658.623z"/>
	</g>
</g>
</svg>
