<?xml version="1.0" encoding="utf-8"?>
<!-- Generator: Adobe Illustrator 16.0.0, SVG Export Plug-In . SVG Version: 6.00 Build 0)  -->
<!DOCTYPE svg PUBLIC "-//W3C//DTD SVG 1.1//EN" "http://www.w3.org/Graphics/SVG/1.1/DTD/svg11.dtd">
<svg version="1.1" id="Calque_1" xmlns="http://www.w3.org/2000/svg" xmlns:xlink="http://www.w3.org/1999/xlink" x="0px" y="0px"
	 width="403.333px" height="61.999px" viewBox="906.5 260.289 403.333 61.999"
	 enable-background="new 906.5 260.289 403.333 61.999" xml:space="preserve">
<rect x="906.5" y="260.289" fill="#333333" width="403.333" height="61.999"/>
<g id="Calque_2">
	<g id="Calque_3">
	</g>
</g>
<radialGradient id="SVGID_1_" cx="932.5508" cy="281.6885" r="13.9738" gradientUnits="userSpaceOnUse">
	<stop  offset="0" style="stop-color:#FFFFFF"/>
	<stop  offset="1" style="stop-color:#93278F"/>
</radialGradient>
<polygon fill="url(#SVGID_1_)" points="946.389,279.697 932.582,267.58 918.713,279.697 920.094,279.697 920.094,295.797 
	929.146,295.797 929.146,284.926 935.518,284.926 935.518,295.797 945.069,295.797 945.069,279.697 "/>
<g>
	<radialGradient id="SVGID_2_" cx="1105.166" cy="283.375" r="13.9733" gradientUnits="userSpaceOnUse">
		<stop  offset="0" style="stop-color:#FFFFFF"/>
		<stop  offset="1" style="stop-color:#F15A24"/>
	</radialGradient>
	<polygon fill="url(#SVGID_2_)" points="1105.197,269.268 1091.328,281.383 1092.711,281.383 1092.711,297.482 1101.762,297.482 
		1108.135,297.482 1117.686,297.482 1117.686,281.383 1119.004,281.383 	"/>
	<g>
		<path fill-rule="evenodd" clip-rule="evenodd" fill="#FFFFFF" d="M1105.131,283.537c-0.015-0.053-0.025-0.082-0.03-0.111
			c-0.087-0.465-0.308-0.865-0.618-1.213c-0.684-0.766-1.477-1.34-2.555-1.354c-0.395-0.004-0.792,0.012-1.185,0.051
			c-0.397,0.039-0.749,0.225-1.095,0.412c-1.015,0.555-1.668,1.408-2.029,2.492c-0.125,0.373-0.119,0.768-0.125,1.158
			c-0.013,0.725,0.063,1.438,0.293,2.131c0.295,0.895,0.814,1.648,1.471,2.313c0.75,0.762,1.584,1.424,2.435,2.066
			c0.813,0.615,1.636,1.219,2.387,1.912c0.386,0.355,0.75,0.73,0.999,1.201c0.01,0.016,0.025,0.029,0.033,0.039
			c0.115-0.139,0.22-0.281,0.341-0.406c0.88-0.908,1.831-1.738,2.831-2.514c0.674-0.521,1.357-1.031,2.016-1.572
			c0.631-0.516,1.197-1.1,1.648-1.785c0.363-0.555,0.646-1.143,0.773-1.799c0.152-0.801,0.15-1.602,0.039-2.408
			c-0.096-0.697-0.361-1.318-0.822-1.848c-0.996-1.143-2.256-1.617-3.75-1.396c-1.279,0.188-2.215,0.887-2.791,2.055
			C1105.308,283.143,1105.227,283.328,1105.131,283.537z"/>
		<path fill-rule="evenodd" clip-rule="evenodd" fill="#FF0000" d="M1105.131,283.537c0.096-0.209,0.177-0.395,0.266-0.576
			c0.576-1.168,1.512-1.867,2.791-2.055c1.494-0.221,2.754,0.254,3.75,1.396c0.461,0.529,0.727,1.15,0.822,1.848
			c0.111,0.807,0.113,1.607-0.039,2.408c-0.127,0.656-0.41,1.244-0.773,1.799c-0.451,0.686-1.018,1.27-1.648,1.785
			c-0.658,0.541-1.342,1.051-2.016,1.572c-1,0.775-1.951,1.605-2.831,2.514c-0.121,0.125-0.226,0.268-0.341,0.406
			c-0.008-0.01-0.023-0.023-0.033-0.039c-0.249-0.471-0.613-0.846-0.999-1.201c-0.751-0.693-1.573-1.297-2.387-1.912
			c-0.851-0.643-1.685-1.305-2.435-2.066c-0.656-0.664-1.176-1.418-1.471-2.313c-0.23-0.693-0.306-1.406-0.293-2.131
			c0.006-0.391,0-0.785,0.125-1.158c0.361-1.084,1.015-1.938,2.029-2.492c0.346-0.188,0.697-0.373,1.095-0.412
			c0.393-0.039,0.79-0.055,1.185-0.051c1.078,0.014,1.871,0.588,2.555,1.354c0.311,0.348,0.531,0.748,0.618,1.213
			C1105.105,283.455,1105.116,283.484,1105.131,283.537z"/>
	</g>
</g>
<path fill-rule="evenodd" clip-rule="evenodd" fill="#FBB03B" d="M1288.927,289.25c-4.75,0-4.584-0.826-4.518-1.541
	c0.109-1.148,2.842-4.717,2.842-4.717l-0.002-0.002c1.42-1.574,2.303-3.768,2.303-6.199c0-4.785-3.414-8.666-7.625-8.666
	s-7.625,3.881-7.625,8.666c0,2.393,0.852,4.559,2.23,6.127c0.023,0.025,0.049,0.047,0.07,0.072v0.002c0,0,2.732,3.568,2.84,4.717
	c0.068,0.715,0.234,1.541-4.516,1.541s-7.313,4.25-7.313,4.25v5.125h14.313h14.313V293.5
	C1296.239,293.5,1293.677,289.25,1288.927,289.25z"/>
<radialGradient id="SVGID_3_" cx="1281.6768" cy="283.375" r="14.7887" gradientUnits="userSpaceOnUse">
	<stop  offset="0" style="stop-color:#FFFFFF"/>
	<stop  offset="1" style="stop-color:#FBB03B"/>
</radialGradient>
<path fill-rule="evenodd" clip-rule="evenodd" fill="url(#SVGID_3_)" d="M1288.677,289.25c-4.75,0-4.584-0.826-4.518-1.541
	c0.109-1.148,2.842-4.717,2.842-4.717l-0.002-0.002c1.42-1.574,2.303-3.768,2.303-6.199c0-4.785-3.414-8.666-7.625-8.666
	s-7.625,3.881-7.625,8.666c0,2.393,0.852,4.559,2.23,6.127c0.023,0.025,0.049,0.047,0.07,0.072v0.002c0,0,2.732,3.568,2.84,4.717
	c0.068,0.715,0.234,1.541-4.516,1.541s-7.313,4.25-7.313,4.25v5.125h14.313h14.313V293.5
	C1295.989,293.5,1293.427,289.25,1288.677,289.25z"/>
<text transform="matrix(1 0 0 1 919.1758 316.6445)" fill="#606060" font-family="'EncodeSansCondensed-Bold'" font-size="12">Akey</text>
<text transform="matrix(1 0 0 1 1089.7412 316.6445)" fill="#606060" font-family="'EncodeSansCondensed-Bold'" font-size="12">Favori</text>
<text transform="matrix(1 0 0 1 1265.7627 316.6445)" fill="#606060" font-family="'EncodeSansCondensed-Bold'" font-size="12">Pwofil</text>
<g>
	<path fill="#FBB03B" d="M1284.393,287c-0.032,0.07-0.064,0.14-0.09,0.205C1284.335,287.138,1284.365,287.07,1284.393,287z"/>
	<path fill="#FBB03B" d="M1279.047,287.197c-0.023-0.06-0.055-0.125-0.083-0.188
		C1278.988,287.073,1279.018,287.135,1279.047,287.197z"/>
	<g>
		<defs>
			<filter id="Adobe_OpacityMaskFilter" filterUnits="userSpaceOnUse" x="1274.052" y="268.125" width="15.25" height="21.33">
				<feFlood  style="flood-color:white;flood-opacity:1" result="back"/>
				<feBlend  in="SourceGraphic" in2="back" mode="normal"/>
			</filter>
		</defs>
		<mask maskUnits="userSpaceOnUse" x="1274.052" y="268.125" width="15.25" height="21.33" id="SVGID_4_">
			<g filter="url(#Adobe_OpacityMaskFilter)">
				<image overflow="visible" width="20" height="26" xlink:href="B5ECA9B5.jpg"  transform="matrix(1 0 0 1 1271.5 265.9551)">
				</image>
			</g>
		</mask>
		<g mask="url(#SVGID_4_)">
			<path d="M1289.302,276.791c0-4.785-3.414-8.666-7.625-8.666s-7.625,3.881-7.625,8.666c0,2.393,0.852,4.559,2.23,6.127
				c0.023,0.025,0.049,0.047,0.07,0.072v0.002c0,0,1.938,2.532,2.611,4.017c0.028,0.063,0.06,0.129,0.083,0.188
				c0.468,0.987,1.465,2.258,2.63,2.258c1.162,0,2.157-1.268,2.626-2.25c0.025-0.065,0.058-0.135,0.09-0.205
				c0.679-1.484,2.608-4.008,2.608-4.008l-0.002-0.002C1288.419,281.416,1289.302,279.223,1289.302,276.791z"/>
		</g>
	</g>
</g>
<radialGradient id="SVGID_6_" cx="1281.6768" cy="278.498" r="9.1039" gradientUnits="userSpaceOnUse">
	<stop  offset="0" style="stop-color:#FFFFFF"/>
	<stop  offset="1" style="stop-color:#FBB03B"/>
</radialGradient>
<path fill="url(#SVGID_6_)" d="M1289.302,276.791c0-4.785-3.414-8.666-7.625-8.666s-7.625,3.881-7.625,8.666
	c0,2.393,0.852,4.559,2.23,6.127c0.023,0.025,0.049,0.047,0.07,0.072v0.002c0,0,1.938,2.532,2.611,4.017
	c0.028,0.063,0.06,0.129,0.083,0.188c0.468,0.987,1.465,1.675,2.63,1.675c1.162,0,2.157-0.685,2.626-1.667
	c0.025-0.065,0.058-0.135,0.09-0.205c0.679-1.484,2.608-4.008,2.608-4.008l-0.002-0.002
	C1288.419,281.416,1289.302,279.223,1289.302,276.791z"/>
</svg>
