<?xml version="1.0" encoding="utf-8"?>
<!-- Generator: Adobe Illustrator 16.0.0, SVG Export Plug-In . SVG Version: 6.00 Build 0)  -->
<!DOCTYPE svg PUBLIC "-//W3C//DTD SVG 1.1//EN" "http://www.w3.org/Graphics/SVG/1.1/DTD/svg11.dtd">
<svg version="1.1" id="Calque_1" xmlns="http://www.w3.org/2000/svg" xmlns:xlink="http://www.w3.org/1999/xlink" x="0px" y="0px"
	 width="34.32px" height="28.216px" viewBox="0 0 34.32 28.216" enable-background="new 0 0 34.32 28.216" xml:space="preserve">
<g>
	<polygon fill="#FF9900" points="17.191,0 0,12.116 4.704,12.116 4.704,28.216 13.756,28.216 20.128,28.216 29.679,28.216 
		29.679,12.116 34.32,12.116 	"/>
	<g>
		<path fill-rule="evenodd" clip-rule="evenodd" fill="#FF9900" d="M17.124,14.27c-0.015-0.053-0.024-0.082-0.03-0.111
			c-0.086-0.465-0.307-0.864-0.618-1.212c-0.684-0.766-1.476-1.341-2.555-1.354c-0.395-0.004-0.792,0.013-1.185,0.052
			c-0.396,0.038-0.748,0.224-1.094,0.412c-1.016,0.554-1.668,1.407-2.029,2.491c-0.126,0.374-0.119,0.769-0.126,1.158
			c-0.013,0.726,0.063,1.438,0.293,2.132c0.296,0.895,0.815,1.648,1.472,2.313c0.75,0.761,1.584,1.423,2.434,2.065
			c0.814,0.615,1.637,1.219,2.387,1.912c0.387,0.356,0.75,0.731,1,1.201c0.01,0.017,0.025,0.03,0.033,0.039
			c0.115-0.139,0.219-0.28,0.34-0.405c0.881-0.909,1.832-1.739,2.832-2.515c0.674-0.521,1.357-1.031,2.016-1.571
			c0.631-0.517,1.197-1.101,1.648-1.786c0.363-0.554,0.646-1.143,0.773-1.798c0.152-0.801,0.15-1.603,0.039-2.408
			c-0.096-0.697-0.361-1.318-0.822-1.849c-0.996-1.143-2.257-1.617-3.75-1.396c-1.279,0.188-2.216,0.888-2.791,2.055
			C17.301,13.875,17.22,14.062,17.124,14.27z"/>
		<path fill-rule="evenodd" clip-rule="evenodd" fill="#E7415D" d="M17.124,14.27c0.096-0.208,0.177-0.395,0.267-0.576
			c0.575-1.167,1.512-1.866,2.791-2.055c1.493-0.221,2.754,0.254,3.75,1.396c0.461,0.53,0.727,1.151,0.822,1.849
			c0.111,0.806,0.113,1.607-0.039,2.408c-0.127,0.655-0.41,1.244-0.773,1.798c-0.451,0.686-1.018,1.27-1.648,1.786
			c-0.658,0.54-1.342,1.05-2.016,1.571c-1,0.775-1.951,1.605-2.832,2.515c-0.121,0.125-0.225,0.267-0.34,0.405
			c-0.008-0.009-0.023-0.022-0.033-0.039c-0.25-0.47-0.613-0.845-1-1.201c-0.75-0.693-1.572-1.297-2.387-1.912
			c-0.85-0.643-1.684-1.305-2.434-2.065c-0.656-0.664-1.176-1.418-1.472-2.313c-0.229-0.693-0.306-1.406-0.293-2.132
			c0.007-0.39,0-0.784,0.126-1.158c0.361-1.084,1.014-1.938,2.029-2.491c0.346-0.188,0.697-0.374,1.094-0.412
			c0.393-0.039,0.79-0.056,1.185-0.052c1.079,0.014,1.871,0.589,2.555,1.354c0.312,0.348,0.532,0.747,0.618,1.212
			C17.1,14.188,17.109,14.217,17.124,14.27z"/>
	</g>
</g>
</svg>
