<?xml version="1.0" encoding="utf-8"?>
<!-- Generator: Adobe Illustrator 16.0.0, SVG Export Plug-In . SVG Version: 6.00 Build 0)  -->
<!DOCTYPE svg PUBLIC "-//W3C//DTD SVG 1.1//EN" "http://www.w3.org/Graphics/SVG/1.1/DTD/svg11.dtd">
<svg version="1.1" id="Calque_1" xmlns="http://www.w3.org/2000/svg" xmlns:xlink="http://www.w3.org/1999/xlink" x="0px" y="0px"
	 width="28.625px" height="30.9px" viewBox="1006.932 208.155 28.625 30.9" enable-background="new 1006.932 208.155 28.625 30.9"
	 xml:space="preserve">
<g id="Calque_2">
	<g id="Calque_3">
	</g>
</g>
<g>
	<polygon fill="#606060" points="1021.276,208.155 1006.916,222.386 1008.348,222.386 1008.348,239.056 1017.719,239.056 
		1024.318,239.056 1034.207,239.056 1034.207,222.386 1035.572,222.386 	"/>
	<g>
		<path fill-rule="evenodd" clip-rule="evenodd" fill="#606060" d="M1021.208,223.226c-0.015-0.055-0.026-0.085-0.03-0.115
			c-0.092-0.481-0.32-0.896-0.642-1.256c-0.708-0.793-1.528-1.388-2.646-1.401c-0.408-0.004-0.818,0.012-1.225,0.053
			c-0.413,0.04-0.777,0.232-1.135,0.427c-1.05,0.574-1.728,1.458-2.102,2.58c-0.129,0.387-0.123,0.795-0.129,1.199
			c-0.013,0.751,0.064,1.488,0.303,2.207c0.306,0.926,0.844,1.706,1.523,2.395c0.776,0.788,1.64,1.474,2.521,2.14
			c0.841,0.637,1.692,1.262,2.472,1.979c0.398,0.368,0.776,0.756,1.033,1.244c0.01,0.016,0.026,0.03,0.034,0.04
			c0.119-0.144,0.229-0.291,0.354-0.421c0.91-0.94,1.896-1.8,2.931-2.603c0.698-0.54,1.405-1.067,2.087-1.628
			c0.653-0.534,1.24-1.139,1.707-1.849c0.376-0.574,0.67-1.183,0.801-1.862c0.158-0.829,0.156-1.658,0.041-2.494
			c-0.1-0.722-0.375-1.364-0.852-1.913c-1.031-1.183-2.336-1.674-3.883-1.445c-1.325,0.193-2.294,0.918-2.891,2.127
			C1021.392,222.817,1021.307,223.01,1021.208,223.226z"/>
		<path fill-rule="evenodd" clip-rule="evenodd" fill="#333333" d="M1021.208,224.616c0.099-0.217,0.184-0.408,0.274-0.597
			c0.597-1.209,1.565-1.934,2.891-2.128c1.547-0.229,2.852,0.264,3.883,1.446c0.477,0.548,0.752,1.191,0.852,1.913
			c0.115,0.835,0.117,1.664-0.041,2.494c-0.131,0.679-0.425,1.288-0.801,1.862c-0.467,0.71-1.054,1.314-1.707,1.849
			c-0.682,0.56-1.389,1.088-2.087,1.628c-1.035,0.803-2.021,1.662-2.931,2.603c-0.125,0.129-0.234,0.277-0.354,0.421
			c-0.008-0.011-0.024-0.024-0.034-0.041c-0.257-0.487-0.635-0.875-1.033-1.243c-0.779-0.719-1.631-1.343-2.472-1.98
			c-0.882-0.665-1.745-1.351-2.521-2.14c-0.68-0.688-1.218-1.468-1.523-2.395c-0.238-0.718-0.315-1.456-0.303-2.206
			c0.006-0.404,0-0.813,0.129-1.199c0.374-1.122,1.052-2.006,2.102-2.58c0.357-0.194,0.722-0.387,1.135-0.427
			c0.406-0.041,0.816-0.057,1.225-0.053c1.117,0.014,1.938,0.608,2.646,1.401c0.321,0.359,0.55,0.774,0.642,1.256
			C1021.182,224.531,1021.193,224.562,1021.208,224.616z"/>
	</g>
</g>
</svg>
