<?xml version="1.0" encoding="utf-8"?>
<!-- Generator: Adobe Illustrator 16.0.0, SVG Export Plug-In . SVG Version: 6.00 Build 0)  -->
<!DOCTYPE svg PUBLIC "-//W3C//DTD SVG 1.1//EN" "http://www.w3.org/Graphics/SVG/1.1/DTD/svg11.dtd">
<svg version="1.1" id="Calque_1" xmlns="http://www.w3.org/2000/svg" xmlns:xlink="http://www.w3.org/1999/xlink" x="0px" y="0px"
	 width="28.625px" height="30.9px" viewBox="1005.104 264.646 28.625 30.9" enable-background="new 1005.104 264.646 28.625 30.9"
	 xml:space="preserve">
<g id="Calque_2">
	<g id="Calque_3">
	</g>
</g>
<g>
	<polygon fill="#606060" points="1019.448,264.646 1005.088,278.876 1006.52,278.876 1006.52,295.546 1015.891,295.546 
		1022.49,295.546 1032.379,295.546 1032.379,278.876 1033.744,278.876 	"/>
	<g>
		<path fill-rule="evenodd" clip-rule="evenodd" fill="#606060" d="M1019.38,279.716c-0.015-0.055-0.026-0.085-0.03-0.115
			c-0.092-0.481-0.32-0.896-0.642-1.256c-0.708-0.793-1.528-1.388-2.646-1.401c-0.408-0.004-0.818,0.012-1.225,0.053
			c-0.413,0.04-0.777,0.232-1.135,0.427c-1.05,0.574-1.728,1.458-2.102,2.58c-0.129,0.387-0.123,0.795-0.129,1.199
			c-0.013,0.751,0.064,1.488,0.303,2.207c0.306,0.926,0.844,1.706,1.523,2.395c0.776,0.788,1.64,1.474,2.521,2.14
			c0.841,0.637,1.692,1.262,2.472,1.979c0.398,0.368,0.776,0.756,1.033,1.244c0.01,0.016,0.026,0.03,0.034,0.04
			c0.119-0.144,0.229-0.291,0.354-0.421c0.91-0.94,1.896-1.8,2.931-2.603c0.698-0.54,1.405-1.067,2.087-1.628
			c0.653-0.534,1.24-1.139,1.707-1.849c0.376-0.574,0.67-1.183,0.801-1.862c0.158-0.829,0.156-1.658,0.041-2.494
			c-0.1-0.722-0.375-1.364-0.852-1.913c-1.031-1.183-2.336-1.674-3.883-1.445c-1.325,0.193-2.294,0.918-2.891,2.127
			C1019.563,279.308,1019.479,279.5,1019.38,279.716z"/>
		<path fill-rule="evenodd" clip-rule="evenodd" fill="#333333" d="M1019.38,281.106c0.099-0.217,0.184-0.408,0.274-0.597
			c0.597-1.209,1.565-1.934,2.891-2.128c1.547-0.229,2.852,0.264,3.883,1.446c0.477,0.548,0.752,1.191,0.852,1.913
			c0.115,0.835,0.117,1.664-0.041,2.494c-0.131,0.679-0.425,1.288-0.801,1.862c-0.467,0.71-1.054,1.314-1.707,1.849
			c-0.682,0.56-1.389,1.088-2.087,1.628c-1.035,0.803-2.021,1.662-2.931,2.603c-0.125,0.129-0.234,0.277-0.354,0.421
			c-0.008-0.011-0.024-0.024-0.034-0.041c-0.257-0.487-0.635-0.875-1.033-1.243c-0.779-0.719-1.631-1.343-2.472-1.98
			c-0.882-0.665-1.745-1.351-2.521-2.14c-0.68-0.688-1.218-1.468-1.523-2.395c-0.238-0.718-0.315-1.456-0.303-2.206
			c0.006-0.404,0-0.813,0.129-1.199c0.374-1.122,1.052-2.006,2.102-2.58c0.357-0.194,0.722-0.387,1.135-0.427
			c0.406-0.041,0.816-0.057,1.225-0.053c1.117,0.014,1.938,0.608,2.646,1.401c0.321,0.359,0.55,0.774,0.642,1.256
			C1019.354,281.021,1019.365,281.052,1019.38,281.106z"/>
	</g>
</g>
<g>
	<radialGradient id="SVGID_1_" cx="1019.416" cy="280.0957" r="14.8997" gradientUnits="userSpaceOnUse">
		<stop  offset="0" style="stop-color:#FFFFFF"/>
		<stop  offset="1" style="stop-color:#F15A24"/>
	</radialGradient>
	<polygon fill="url(#SVGID_1_)" points="1019.448,264.646 1005.088,278.876 1006.52,278.876 1006.961,295.546 1016.012,295.546 
		1022.385,295.546 1032.379,295.546 1032.379,278.876 1033.744,278.876 	"/>
	<g>
		<path fill-rule="evenodd" clip-rule="evenodd" fill="#FFFFFF" d="M1019.381,281.601c-0.015-0.053-0.025-0.082-0.03-0.111
			c-0.087-0.465-0.308-0.865-0.618-1.213c-0.684-0.766-1.477-1.34-2.555-1.354c-0.395-0.004-0.792,0.012-1.185,0.051
			c-0.397,0.039-0.749,0.225-1.095,0.412c-1.015,0.555-1.668,1.408-2.029,2.492c-0.125,0.373-0.119,0.768-0.125,1.158
			c-0.013,0.725,0.063,1.438,0.293,2.131c0.295,0.895,0.814,1.648,1.471,2.313c0.75,0.762,1.584,1.424,2.435,2.066
			c0.813,0.615,1.636,1.219,2.387,1.912c0.386,0.355,0.75,0.73,0.999,1.201c0.01,0.016,0.025,0.029,0.033,0.039
			c0.115-0.139,0.22-0.281,0.341-0.406c0.88-0.908,1.831-1.738,2.831-2.514c0.674-0.521,1.357-1.031,2.016-1.572
			c0.631-0.516,1.197-1.1,1.648-1.785c0.363-0.555,0.646-1.143,0.773-1.799c0.152-0.801,0.15-1.602,0.039-2.408
			c-0.096-0.697-0.361-1.318-0.822-1.848c-0.996-1.143-2.256-1.617-3.75-1.396c-1.279,0.188-2.215,0.887-2.791,2.055
			C1019.558,281.206,1019.477,281.392,1019.381,281.601z"/>
		<path fill-rule="evenodd" clip-rule="evenodd" fill="#FF0000" d="M1019.381,281.601c0.096-0.209,0.177-0.395,0.266-0.576
			c0.576-1.168,1.512-1.867,2.791-2.055c1.494-0.221,2.754,0.254,3.75,1.396c0.461,0.529,0.727,1.15,0.822,1.848
			c0.111,0.807,0.113,1.607-0.039,2.408c-0.127,0.656-0.41,1.244-0.773,1.799c-0.451,0.686-1.018,1.27-1.648,1.785
			c-0.658,0.541-1.342,1.051-2.016,1.572c-1,0.775-1.951,1.605-2.831,2.514c-0.121,0.125-0.226,0.268-0.341,0.406
			c-0.008-0.01-0.023-0.023-0.033-0.039c-0.249-0.471-0.613-0.846-0.999-1.201c-0.751-0.693-1.573-1.297-2.387-1.912
			c-0.851-0.643-1.685-1.305-2.435-2.066c-0.656-0.664-1.176-1.418-1.471-2.313c-0.23-0.693-0.306-1.406-0.293-2.131
			c0.006-0.391,0-0.785,0.125-1.158c0.361-1.084,1.015-1.938,2.029-2.492c0.346-0.188,0.697-0.373,1.095-0.412
			c0.393-0.039,0.79-0.055,1.185-0.051c1.078,0.014,1.871,0.588,2.555,1.354c0.311,0.348,0.531,0.748,0.618,1.213
			C1019.355,281.519,1019.366,281.548,1019.381,281.601z"/>
	</g>
</g>
</svg>
